<?xml version="1.0"?><svg xmlns="http://www.w3.org/2000/svg" width="408" height="408"><rect x="0" y="0" width="100%" height="100%" fill="rgb(0, 184, 148)" /><circle cx="34" cy="34" r="28.333333333333" fill="none" stroke="#ddd" style="opacity:0.14133333333333;stroke-width:11.333333333333px;" /><circle cx="34" cy="34" r="14.166666666667" fill="#ddd" fill-opacity="0.054666666666667" /><circle cx="102" cy="34" r="28.333333333333" fill="none" stroke="#ddd" style="opacity:0.14133333333333;stroke-width:11.333333333333px;" /><circle cx="102" cy="34" r="14.166666666667" fill="#222" fill-opacity="0.063333333333333" /><circle cx="170" cy="34" r="28.333333333333" fill="none" stroke="#ddd" style="opacity:0.02;stroke-width:11.333333333333px;" /><circle cx="170" cy="34" r="14.166666666667" fill="#222" fill-opacity="0.063333333333333" /><circle cx="238" cy="34" r="28.333333333333" fill="none" stroke="#222" style="opacity:0.080666666666667;stroke-width:11.333333333333px;" /><circle cx="238" cy="34" r="14.166666666667" fill="#222" fill-opacity="0.063333333333333" /><circle cx="306" cy="34" r="28.333333333333" fill="none" stroke="#222" style="opacity:0.11533333333333;stroke-width:11.333333333333px;" /><circle cx="306" cy="34" r="14.166666666667" fill="#222" fill-opacity="0.11533333333333" /><circle cx="374" cy="34" r="28.333333333333" fill="none" stroke="#222" style="opacity:0.15;stroke-width:11.333333333333px;" /><circle cx="374" cy="34" r="14.166666666667" fill="#222" fill-opacity="0.11533333333333" /><circle cx="34" cy="102" r="28.333333333333" fill="none" stroke="#222" style="opacity:0.15;stroke-width:11.333333333333px;" /><circle cx="34" cy="102" r="14.166666666667" fill="#ddd" fill-opacity="0.072" /><circle cx="102" cy="102" r="28.333333333333" fill="none" stroke="#ddd" style="opacity:0.124;stroke-width:11.333333333333px;" /><circle cx="102" cy="102" r="14.166666666667" fill="#ddd" fill-opacity="0.089333333333333" /><circle cx="170" cy="102" r="28.333333333333" fill="none" stroke="#222" style="opacity:0.098;stroke-width:11.333333333333px;" /><circle cx="170" cy="102" r="14.166666666667" fill="#222" fill-opacity="0.028666666666667" /><circle cx="238" cy="102" r="28.333333333333" fill="none" stroke="#ddd" style="opacity:0.14133333333333;stroke-width:11.333333333333px;" /><circle cx="238" cy="102" r="14.166666666667" fill="#ddd" fill-opacity="0.054666666666667" /><circle cx="306" cy="102" r="28.333333333333" fill="none" stroke="#222" style="opacity:0.15;stroke-width:11.333333333333px;" /><circle cx="306" cy="102" r="14.166666666667" fill="#222" fill-opacity="0.028666666666667" /><circle cx="374" cy="102" r="28.333333333333" fill="none" stroke="#ddd" style="opacity:0.124;stroke-width:11.333333333333px;" /><circle cx="374" cy="102" r="14.166666666667" fill="#ddd" fill-opacity="0.072" /><circle cx="34" cy="170" r="28.333333333333" fill="none" stroke="#ddd" style="opacity:0.072;stroke-width:11.333333333333px;" /><circle cx="34" cy="170" r="14.166666666667" fill="#222" fill-opacity="0.046" /><circle cx="102" cy="170" r="28.333333333333" fill="none" stroke="#222" style="opacity:0.063333333333333;stroke-width:11.333333333333px;" /><circle cx="102" cy="170" r="14.166666666667" fill="#222" fill-opacity="0.046" /><circle cx="170" cy="170" r="28.333333333333" fill="none" stroke="#ddd" style="opacity:0.10666666666667;stroke-width:11.333333333333px;" /><circle cx="170" cy="170" r="14.166666666667" fill="#222" fill-opacity="0.063333333333333" /><circle cx="238" cy="170" r="28.333333333333" fill="none" stroke="#ddd" style="opacity:0.054666666666667;stroke-width:11.333333333333px;" /><circle cx="238" cy="170" r="14.166666666667" fill="#ddd" fill-opacity="0.072" /><circle cx="306" cy="170" r="28.333333333333" fill="none" stroke="#ddd" style="opacity:0.072;stroke-width:11.333333333333px;" /><circle cx="306" cy="170" r="14.166666666667" fill="#ddd" fill-opacity="0.10666666666667" /><circle cx="374" cy="170" r="28.333333333333" fill="none" stroke="#222" style="opacity:0.080666666666667;stroke-width:11.333333333333px;" /><circle cx="374" cy="170" r="14.166666666667" fill="#ddd" fill-opacity="0.089333333333333" /><circle cx="34" cy="238" r="28.333333333333" fill="none" stroke="#ddd" style="opacity:0.02;stroke-width:11.333333333333px;" /><circle cx="34" cy="238" r="14.166666666667" fill="#222" fill-opacity="0.098" /><circle cx="102" cy="238" r="28.333333333333" fill="none" stroke="#222" style="opacity:0.11533333333333;stroke-width:11.333333333333px;" /><circle cx="102" cy="238" r="14.166666666667" fill="#ddd" fill-opacity="0.10666666666667" /><circle cx="170" cy="238" r="28.333333333333" fill="none" stroke="#ddd" style="opacity:0.10666666666667;stroke-width:11.333333333333px;" /><circle cx="170" cy="238" r="14.166666666667" fill="#222" fill-opacity="0.11533333333333" /><circle cx="238" cy="238" r="28.333333333333" fill="none" stroke="#222" style="opacity:0.098;stroke-width:11.333333333333px;" /><circle cx="238" cy="238" r="14.166666666667" fill="#ddd" fill-opacity="0.02" /><circle cx="306" cy="238" r="28.333333333333" fill="none" stroke="#ddd" style="opacity:0.089333333333333;stroke-width:11.333333333333px;" /><circle cx="306" cy="238" r="14.166666666667" fill="#222" fill-opacity="0.080666666666667" /><circle cx="374" cy="238" r="28.333333333333" fill="none" stroke="#ddd" style="opacity:0.10666666666667;stroke-width:11.333333333333px;" /><circle cx="374" cy="238" r="14.166666666667" fill="#ddd" fill-opacity="0.072" /><circle cx="34" cy="306" r="28.333333333333" fill="none" stroke="#ddd" style="opacity:0.072;stroke-width:11.333333333333px;" /><circle cx="34" cy="306" r="14.166666666667" fill="#ddd" fill-opacity="0.054666666666667" /><circle cx="102" cy="306" r="28.333333333333" fill="none" stroke="#222" style="opacity:0.063333333333333;stroke-width:11.333333333333px;" /><circle cx="102" cy="306" r="14.166666666667" fill="#ddd" fill-opacity="0.10666666666667" /><circle cx="170" cy="306" r="28.333333333333" fill="none" stroke="#222" style="opacity:0.046;stroke-width:11.333333333333px;" /><circle cx="170" cy="306" r="14.166666666667" fill="#222" fill-opacity="0.063333333333333" /><circle cx="238" cy="306" r="28.333333333333" fill="none" stroke="#222" style="opacity:0.046;stroke-width:11.333333333333px;" /><circle cx="238" cy="306" r="14.166666666667" fill="#ddd" fill-opacity="0.072" /><circle cx="306" cy="306" r="28.333333333333" fill="none" stroke="#ddd" style="opacity:0.072;stroke-width:11.333333333333px;" /><circle cx="306" cy="306" r="14.166666666667" fill="#ddd" fill-opacity="0.124" /><circle cx="374" cy="306" r="28.333333333333" fill="none" stroke="#222" style="opacity:0.028666666666667;stroke-width:11.333333333333px;" /><circle cx="374" cy="306" r="14.166666666667" fill="#222" fill-opacity="0.15" /><circle cx="34" cy="374" r="28.333333333333" fill="none" stroke="#ddd" style="opacity:0.054666666666667;stroke-width:11.333333333333px;" /><circle cx="34" cy="374" r="14.166666666667" fill="#ddd" fill-opacity="0.14133333333333" /><circle cx="102" cy="374" r="28.333333333333" fill="none" stroke="#222" style="opacity:0.028666666666667;stroke-width:11.333333333333px;" /><circle cx="102" cy="374" r="14.166666666667" fill="#222" fill-opacity="0.098" /><circle cx="170" cy="374" r="28.333333333333" fill="none" stroke="#ddd" style="opacity:0.089333333333333;stroke-width:11.333333333333px;" /><circle cx="170" cy="374" r="14.166666666667" fill="#ddd" fill-opacity="0.124" /><circle cx="238" cy="374" r="28.333333333333" fill="none" stroke="#ddd" style="opacity:0.072;stroke-width:11.333333333333px;" /><circle cx="238" cy="374" r="14.166666666667" fill="#222" fill-opacity="0.15" /><circle cx="306" cy="374" r="28.333333333333" fill="none" stroke="#222" style="opacity:0.11533333333333;stroke-width:11.333333333333px;" /><circle cx="306" cy="374" r="14.166666666667" fill="#222" fill-opacity="0.15" /><circle cx="374" cy="374" r="28.333333333333" fill="none" stroke="#222" style="opacity:0.11533333333333;stroke-width:11.333333333333px;" /><circle cx="374" cy="374" r="14.166666666667" fill="#222" fill-opacity="0.11533333333333" /></svg>