<?xml version="1.0"?><svg xmlns="http://www.w3.org/2000/svg" width="110" height="110"><rect x="0" y="0" width="100%" height="100%" fill="rgb(253, 121, 168)" /><circle cx="0" cy="0" r="18.333333333333" fill="#222" style="opacity:0.028666666666667;" /><circle cx="110" cy="0" r="18.333333333333" fill="#222" style="opacity:0.028666666666667;" /><circle cx="0" cy="110" r="18.333333333333" fill="#222" style="opacity:0.028666666666667;" /><circle cx="110" cy="110" r="18.333333333333" fill="#222" style="opacity:0.028666666666667;" /><circle cx="18.333333333333" cy="0" r="18.333333333333" fill="#ddd" style="opacity:0.089333333333333;" /><circle cx="18.333333333333" cy="110" r="18.333333333333" fill="#ddd" style="opacity:0.089333333333333;" /><circle cx="36.666666666667" cy="0" r="18.333333333333" fill="#222" style="opacity:0.028666666666667;" /><circle cx="36.666666666667" cy="110" r="18.333333333333" fill="#222" style="opacity:0.028666666666667;" /><circle cx="55" cy="0" r="18.333333333333" fill="#222" style="opacity:0.098;" /><circle cx="55" cy="110" r="18.333333333333" fill="#222" style="opacity:0.098;" /><circle cx="73.333333333333" cy="0" r="18.333333333333" fill="#ddd" style="opacity:0.124;" /><circle cx="73.333333333333" cy="110" r="18.333333333333" fill="#ddd" style="opacity:0.124;" /><circle cx="91.666666666667" cy="0" r="18.333333333333" fill="#ddd" style="opacity:0.124;" /><circle cx="91.666666666667" cy="110" r="18.333333333333" fill="#ddd" style="opacity:0.124;" /><circle cx="0" cy="18.333333333333" r="18.333333333333" fill="#222" style="opacity:0.028666666666667;" /><circle cx="110" cy="18.333333333333" r="18.333333333333" fill="#222" style="opacity:0.028666666666667;" /><circle cx="18.333333333333" cy="18.333333333333" r="18.333333333333" fill="#222" style="opacity:0.11533333333333;" /><circle cx="36.666666666667" cy="18.333333333333" r="18.333333333333" fill="#ddd" style="opacity:0.037333333333333;" /><circle cx="55" cy="18.333333333333" r="18.333333333333" fill="#ddd" style="opacity:0.037333333333333;" /><circle cx="73.333333333333" cy="18.333333333333" r="18.333333333333" fill="#222" style="opacity:0.098;" /><circle cx="91.666666666667" cy="18.333333333333" r="18.333333333333" fill="#222" style="opacity:0.028666666666667;" /><circle cx="0" cy="36.666666666667" r="18.333333333333" fill="#ddd" style="opacity:0.10666666666667;" /><circle cx="110" cy="36.666666666667" r="18.333333333333" fill="#ddd" style="opacity:0.10666666666667;" /><circle cx="18.333333333333" cy="36.666666666667" r="18.333333333333" fill="#ddd" style="opacity:0.14133333333333;" /><circle cx="36.666666666667" cy="36.666666666667" r="18.333333333333" fill="#ddd" style="opacity:0.089333333333333;" /><circle cx="55" cy="36.666666666667" r="18.333333333333" fill="#222" style="opacity:0.11533333333333;" /><circle cx="73.333333333333" cy="36.666666666667" r="18.333333333333" fill="#222" style="opacity:0.098;" /><circle cx="91.666666666667" cy="36.666666666667" r="18.333333333333" fill="#222" style="opacity:0.080666666666667;" /><circle cx="0" cy="55" r="18.333333333333" fill="#222" style="opacity:0.080666666666667;" /><circle cx="110" cy="55" r="18.333333333333" fill="#222" style="opacity:0.080666666666667;" /><circle cx="18.333333333333" cy="55" r="18.333333333333" fill="#222" style="opacity:0.098;" /><circle cx="36.666666666667" cy="55" r="18.333333333333" fill="#222" style="opacity:0.028666666666667;" /><circle cx="55" cy="55" r="18.333333333333" fill="#ddd" style="opacity:0.124;" /><circle cx="73.333333333333" cy="55" r="18.333333333333" fill="#ddd" style="opacity:0.037333333333333;" /><circle cx="91.666666666667" cy="55" r="18.333333333333" fill="#222" style="opacity:0.11533333333333;" /><circle cx="0" cy="73.333333333333" r="18.333333333333" fill="#ddd" style="opacity:0.037333333333333;" /><circle cx="110" cy="73.333333333333" r="18.333333333333" fill="#ddd" style="opacity:0.037333333333333;" /><circle cx="18.333333333333" cy="73.333333333333" r="18.333333333333" fill="#222" style="opacity:0.080666666666667;" /><circle cx="36.666666666667" cy="73.333333333333" r="18.333333333333" fill="#ddd" style="opacity:0.124;" /><circle cx="55" cy="73.333333333333" r="18.333333333333" fill="#222" style="opacity:0.098;" /><circle cx="73.333333333333" cy="73.333333333333" r="18.333333333333" fill="#ddd" style="opacity:0.10666666666667;" /><circle cx="91.666666666667" cy="73.333333333333" r="18.333333333333" fill="#222" style="opacity:0.080666666666667;" /><circle cx="0" cy="91.666666666667" r="18.333333333333" fill="#222" style="opacity:0.15;" /><circle cx="110" cy="91.666666666667" r="18.333333333333" fill="#222" style="opacity:0.15;" /><circle cx="18.333333333333" cy="91.666666666667" r="18.333333333333" fill="#ddd" style="opacity:0.054666666666667;" /><circle cx="36.666666666667" cy="91.666666666667" r="18.333333333333" fill="#ddd" style="opacity:0.089333333333333;" /><circle cx="55" cy="91.666666666667" r="18.333333333333" fill="#ddd" style="opacity:0.072;" /><circle cx="73.333333333333" cy="91.666666666667" r="18.333333333333" fill="#222" style="opacity:0.046;" /><circle cx="91.666666666667" cy="91.666666666667" r="18.333333333333" fill="#ddd" style="opacity:0.10666666666667;" /></svg>