<?xml version="1.0"?><svg xmlns="http://www.w3.org/2000/svg" width="325" height="325"><rect x="0" y="0" width="100%" height="100%" fill="rgb(116, 185, 255)" /><polyline points="0, 0, 40.666666666667, 40.666666666667, 0, 40.666666666667, 0, 0" stroke="#000" stroke-opacity="0.02" fill-opacity="0.11533333333333" fill="#222" transform="translate(0, 40.666666666667) scale(1, -1)" /><polyline points="0, 0, 40.666666666667, 40.666666666667, 0, 40.666666666667, 0, 0" stroke="#000" stroke-opacity="0.02" fill-opacity="0.11533333333333" fill="#222" transform="translate(81.333333333333, 40.666666666667) scale(-1, -1)" /><polyline points="0, 0, 40.666666666667, 40.666666666667, 0, 40.666666666667, 0, 0" stroke="#000" stroke-opacity="0.02" fill-opacity="0.11533333333333" fill="#222" transform="translate(0, 40.666666666667) scale(1, 1)" /><polyline points="0, 0, 40.666666666667, 40.666666666667, 0, 40.666666666667, 0, 0" stroke="#000" stroke-opacity="0.02" fill-opacity="0.11533333333333" fill="#222" transform="translate(81.333333333333, 40.666666666667) scale(-1, 1)" /><polyline points="0, 0, 40.666666666667, 40.666666666667, 0, 40.666666666667, 0, 0" stroke="#000" stroke-opacity="0.02" fill-opacity="0.15" fill="#222" transform="translate(122, 0) scale(-1, 1)" /><polyline points="0, 0, 40.666666666667, 40.666666666667, 0, 40.666666666667, 0, 0" stroke="#000" stroke-opacity="0.02" fill-opacity="0.15" fill="#222" transform="translate(122, 81.333333333333) scale(1, -1)" /><polyline points="0, 0, 40.666666666667, 40.666666666667, 0, 40.666666666667, 0, 0" stroke="#000" stroke-opacity="0.02" fill-opacity="0.098" fill="#222" transform="translate(122, 81.333333333333) scale(-1, -1)" /><polyline points="0, 0, 40.666666666667, 40.666666666667, 0, 40.666666666667, 0, 0" stroke="#000" stroke-opacity="0.02" fill-opacity="0.098" fill="#222" transform="translate(122, 0) scale(1, 1)" /><polyline points="0, 0, 40.666666666667, 40.666666666667, 0, 40.666666666667, 0, 0" stroke="#000" stroke-opacity="0.02" fill-opacity="0.098" fill="#222" transform="translate(162.66666666667, 40.666666666667) scale(1, -1)" /><polyline points="0, 0, 40.666666666667, 40.666666666667, 0, 40.666666666667, 0, 0" stroke="#000" stroke-opacity="0.02" fill-opacity="0.098" fill="#222" transform="translate(244, 40.666666666667) scale(-1, -1)" /><polyline points="0, 0, 40.666666666667, 40.666666666667, 0, 40.666666666667, 0, 0" stroke="#000" stroke-opacity="0.02" fill-opacity="0.098" fill="#222" transform="translate(162.66666666667, 40.666666666667) scale(1, 1)" /><polyline points="0, 0, 40.666666666667, 40.666666666667, 0, 40.666666666667, 0, 0" stroke="#000" stroke-opacity="0.02" fill-opacity="0.098" fill="#222" transform="translate(244, 40.666666666667) scale(-1, 1)" /><polyline points="0, 0, 40.666666666667, 40.666666666667, 0, 40.666666666667, 0, 0" stroke="#000" stroke-opacity="0.02" fill-opacity="0.072" fill="#ddd" transform="translate(284.66666666667, 0) scale(-1, 1)" /><polyline points="0, 0, 40.666666666667, 40.666666666667, 0, 40.666666666667, 0, 0" stroke="#000" stroke-opacity="0.02" fill-opacity="0.072" fill="#ddd" transform="translate(284.66666666667, 81.333333333333) scale(1, -1)" /><polyline points="0, 0, 40.666666666667, 40.666666666667, 0, 40.666666666667, 0, 0" stroke="#000" stroke-opacity="0.02" fill-opacity="0.098" fill="#222" transform="translate(284.66666666667, 81.333333333333) scale(-1, -1)" /><polyline points="0, 0, 40.666666666667, 40.666666666667, 0, 40.666666666667, 0, 0" stroke="#000" stroke-opacity="0.02" fill-opacity="0.098" fill="#222" transform="translate(284.66666666667, 0) scale(1, 1)" /><polyline points="0, 0, 40.666666666667, 40.666666666667, 0, 40.666666666667, 0, 0" stroke="#000" stroke-opacity="0.02" fill-opacity="0.098" fill="#222" transform="translate(40.666666666667, 81.333333333333) scale(-1, 1)" /><polyline points="0, 0, 40.666666666667, 40.666666666667, 0, 40.666666666667, 0, 0" stroke="#000" stroke-opacity="0.02" fill-opacity="0.098" fill="#222" transform="translate(40.666666666667, 162.66666666667) scale(1, -1)" /><polyline points="0, 0, 40.666666666667, 40.666666666667, 0, 40.666666666667, 0, 0" stroke="#000" stroke-opacity="0.02" fill-opacity="0.054666666666667" fill="#ddd" transform="translate(40.666666666667, 162.66666666667) scale(-1, -1)" /><polyline points="0, 0, 40.666666666667, 40.666666666667, 0, 40.666666666667, 0, 0" stroke="#000" stroke-opacity="0.02" fill-opacity="0.054666666666667" fill="#ddd" transform="translate(40.666666666667, 81.333333333333) scale(1, 1)" /><polyline points="0, 0, 40.666666666667, 40.666666666667, 0, 40.666666666667, 0, 0" stroke="#000" stroke-opacity="0.02" fill-opacity="0.054666666666667" fill="#ddd" transform="translate(81.333333333333, 122) scale(1, -1)" /><polyline points="0, 0, 40.666666666667, 40.666666666667, 0, 40.666666666667, 0, 0" stroke="#000" stroke-opacity="0.02" fill-opacity="0.054666666666667" fill="#ddd" transform="translate(162.66666666667, 122) scale(-1, -1)" /><polyline points="0, 0, 40.666666666667, 40.666666666667, 0, 40.666666666667, 0, 0" stroke="#000" stroke-opacity="0.02" fill-opacity="0.054666666666667" fill="#ddd" transform="translate(81.333333333333, 122) scale(1, 1)" /><polyline points="0, 0, 40.666666666667, 40.666666666667, 0, 40.666666666667, 0, 0" stroke="#000" stroke-opacity="0.02" fill-opacity="0.054666666666667" fill="#ddd" transform="translate(162.66666666667, 122) scale(-1, 1)" /><polyline points="0, 0, 40.666666666667, 40.666666666667, 0, 40.666666666667, 0, 0" stroke="#000" stroke-opacity="0.02" fill-opacity="0.037333333333333" fill="#ddd" transform="translate(203.33333333333, 81.333333333333) scale(-1, 1)" /><polyline points="0, 0, 40.666666666667, 40.666666666667, 0, 40.666666666667, 0, 0" stroke="#000" stroke-opacity="0.02" fill-opacity="0.037333333333333" fill="#ddd" transform="translate(203.33333333333, 162.66666666667) scale(1, -1)" /><polyline points="0, 0, 40.666666666667, 40.666666666667, 0, 40.666666666667, 0, 0" stroke="#000" stroke-opacity="0.02" fill-opacity="0.063333333333333" fill="#222" transform="translate(203.33333333333, 162.66666666667) scale(-1, -1)" /><polyline points="0, 0, 40.666666666667, 40.666666666667, 0, 40.666666666667, 0, 0" stroke="#000" stroke-opacity="0.02" fill-opacity="0.063333333333333" fill="#222" transform="translate(203.33333333333, 81.333333333333) scale(1, 1)" /><polyline points="0, 0, 40.666666666667, 40.666666666667, 0, 40.666666666667, 0, 0" stroke="#000" stroke-opacity="0.02" fill-opacity="0.063333333333333" fill="#222" transform="translate(244, 122) scale(1, -1)" /><polyline points="0, 0, 40.666666666667, 40.666666666667, 0, 40.666666666667, 0, 0" stroke="#000" stroke-opacity="0.02" fill-opacity="0.063333333333333" fill="#222" transform="translate(325.33333333333, 122) scale(-1, -1)" /><polyline points="0, 0, 40.666666666667, 40.666666666667, 0, 40.666666666667, 0, 0" stroke="#000" stroke-opacity="0.02" fill-opacity="0.063333333333333" fill="#222" transform="translate(244, 122) scale(1, 1)" /><polyline points="0, 0, 40.666666666667, 40.666666666667, 0, 40.666666666667, 0, 0" stroke="#000" stroke-opacity="0.02" fill-opacity="0.063333333333333" fill="#222" transform="translate(325.33333333333, 122) scale(-1, 1)" /><polyline points="0, 0, 40.666666666667, 40.666666666667, 0, 40.666666666667, 0, 0" stroke="#000" stroke-opacity="0.02" fill-opacity="0.098" fill="#222" transform="translate(0, 203.33333333333) scale(1, -1)" /><polyline points="0, 0, 40.666666666667, 40.666666666667, 0, 40.666666666667, 0, 0" stroke="#000" stroke-opacity="0.02" fill-opacity="0.098" fill="#222" transform="translate(81.333333333333, 203.33333333333) scale(-1, -1)" /><polyline points="0, 0, 40.666666666667, 40.666666666667, 0, 40.666666666667, 0, 0" stroke="#000" stroke-opacity="0.02" fill-opacity="0.098" fill="#222" transform="translate(0, 203.33333333333) scale(1, 1)" /><polyline points="0, 0, 40.666666666667, 40.666666666667, 0, 40.666666666667, 0, 0" stroke="#000" stroke-opacity="0.02" fill-opacity="0.098" fill="#222" transform="translate(81.333333333333, 203.33333333333) scale(-1, 1)" /><polyline points="0, 0, 40.666666666667, 40.666666666667, 0, 40.666666666667, 0, 0" stroke="#000" stroke-opacity="0.02" fill-opacity="0.02" fill="#ddd" transform="translate(122, 162.66666666667) scale(-1, 1)" /><polyline points="0, 0, 40.666666666667, 40.666666666667, 0, 40.666666666667, 0, 0" stroke="#000" stroke-opacity="0.02" fill-opacity="0.02" fill="#ddd" transform="translate(122, 244) scale(1, -1)" /><polyline points="0, 0, 40.666666666667, 40.666666666667, 0, 40.666666666667, 0, 0" stroke="#000" stroke-opacity="0.02" fill-opacity="0.046" fill="#222" transform="translate(122, 244) scale(-1, -1)" /><polyline points="0, 0, 40.666666666667, 40.666666666667, 0, 40.666666666667, 0, 0" stroke="#000" stroke-opacity="0.02" fill-opacity="0.046" fill="#222" transform="translate(122, 162.66666666667) scale(1, 1)" /><polyline points="0, 0, 40.666666666667, 40.666666666667, 0, 40.666666666667, 0, 0" stroke="#000" stroke-opacity="0.02" fill-opacity="0.046" fill="#222" transform="translate(162.66666666667, 203.33333333333) scale(1, -1)" /><polyline points="0, 0, 40.666666666667, 40.666666666667, 0, 40.666666666667, 0, 0" stroke="#000" stroke-opacity="0.02" fill-opacity="0.046" fill="#222" transform="translate(244, 203.33333333333) scale(-1, -1)" /><polyline points="0, 0, 40.666666666667, 40.666666666667, 0, 40.666666666667, 0, 0" stroke="#000" stroke-opacity="0.02" fill-opacity="0.046" fill="#222" transform="translate(162.66666666667, 203.33333333333) scale(1, 1)" /><polyline points="0, 0, 40.666666666667, 40.666666666667, 0, 40.666666666667, 0, 0" stroke="#000" stroke-opacity="0.02" fill-opacity="0.046" fill="#222" transform="translate(244, 203.33333333333) scale(-1, 1)" /><polyline points="0, 0, 40.666666666667, 40.666666666667, 0, 40.666666666667, 0, 0" stroke="#000" stroke-opacity="0.02" fill-opacity="0.063333333333333" fill="#222" transform="translate(284.66666666667, 162.66666666667) scale(-1, 1)" /><polyline points="0, 0, 40.666666666667, 40.666666666667, 0, 40.666666666667, 0, 0" stroke="#000" stroke-opacity="0.02" fill-opacity="0.063333333333333" fill="#222" transform="translate(284.66666666667, 244) scale(1, -1)" /><polyline points="0, 0, 40.666666666667, 40.666666666667, 0, 40.666666666667, 0, 0" stroke="#000" stroke-opacity="0.02" fill-opacity="0.080666666666667" fill="#222" transform="translate(284.66666666667, 244) scale(-1, -1)" /><polyline points="0, 0, 40.666666666667, 40.666666666667, 0, 40.666666666667, 0, 0" stroke="#000" stroke-opacity="0.02" fill-opacity="0.080666666666667" fill="#222" transform="translate(284.66666666667, 162.66666666667) scale(1, 1)" /><polyline points="0, 0, 40.666666666667, 40.666666666667, 0, 40.666666666667, 0, 0" stroke="#000" stroke-opacity="0.02" fill-opacity="0.080666666666667" fill="#222" transform="translate(40.666666666667, 244) scale(-1, 1)" /><polyline points="0, 0, 40.666666666667, 40.666666666667, 0, 40.666666666667, 0, 0" stroke="#000" stroke-opacity="0.02" fill-opacity="0.080666666666667" fill="#222" transform="translate(40.666666666667, 325.33333333333) scale(1, -1)" /><polyline points="0, 0, 40.666666666667, 40.666666666667, 0, 40.666666666667, 0, 0" stroke="#000" stroke-opacity="0.02" fill-opacity="0.080666666666667" fill="#222" transform="translate(40.666666666667, 325.33333333333) scale(-1, -1)" /><polyline points="0, 0, 40.666666666667, 40.666666666667, 0, 40.666666666667, 0, 0" stroke="#000" stroke-opacity="0.02" fill-opacity="0.080666666666667" fill="#222" transform="translate(40.666666666667, 244) scale(1, 1)" /><polyline points="0, 0, 40.666666666667, 40.666666666667, 0, 40.666666666667, 0, 0" stroke="#000" stroke-opacity="0.02" fill-opacity="0.080666666666667" fill="#222" transform="translate(81.333333333333, 284.66666666667) scale(1, -1)" /><polyline points="0, 0, 40.666666666667, 40.666666666667, 0, 40.666666666667, 0, 0" stroke="#000" stroke-opacity="0.02" fill-opacity="0.080666666666667" fill="#222" transform="translate(162.66666666667, 284.66666666667) scale(-1, -1)" /><polyline points="0, 0, 40.666666666667, 40.666666666667, 0, 40.666666666667, 0, 0" stroke="#000" stroke-opacity="0.02" fill-opacity="0.080666666666667" fill="#222" transform="translate(81.333333333333, 284.66666666667) scale(1, 1)" /><polyline points="0, 0, 40.666666666667, 40.666666666667, 0, 40.666666666667, 0, 0" stroke="#000" stroke-opacity="0.02" fill-opacity="0.080666666666667" fill="#222" transform="translate(162.66666666667, 284.66666666667) scale(-1, 1)" /><polyline points="0, 0, 40.666666666667, 40.666666666667, 0, 40.666666666667, 0, 0" stroke="#000" stroke-opacity="0.02" fill-opacity="0.13266666666667" fill="#222" transform="translate(203.33333333333, 244) scale(-1, 1)" /><polyline points="0, 0, 40.666666666667, 40.666666666667, 0, 40.666666666667, 0, 0" stroke="#000" stroke-opacity="0.02" fill-opacity="0.13266666666667" fill="#222" transform="translate(203.33333333333, 325.33333333333) scale(1, -1)" /><polyline points="0, 0, 40.666666666667, 40.666666666667, 0, 40.666666666667, 0, 0" stroke="#000" stroke-opacity="0.02" fill-opacity="0.046" fill="#222" transform="translate(203.33333333333, 325.33333333333) scale(-1, -1)" /><polyline points="0, 0, 40.666666666667, 40.666666666667, 0, 40.666666666667, 0, 0" stroke="#000" stroke-opacity="0.02" fill-opacity="0.046" fill="#222" transform="translate(203.33333333333, 244) scale(1, 1)" /><polyline points="0, 0, 40.666666666667, 40.666666666667, 0, 40.666666666667, 0, 0" stroke="#000" stroke-opacity="0.02" fill-opacity="0.046" fill="#222" transform="translate(244, 284.66666666667) scale(1, -1)" /><polyline points="0, 0, 40.666666666667, 40.666666666667, 0, 40.666666666667, 0, 0" stroke="#000" stroke-opacity="0.02" fill-opacity="0.046" fill="#222" transform="translate(325.33333333333, 284.66666666667) scale(-1, -1)" /><polyline points="0, 0, 40.666666666667, 40.666666666667, 0, 40.666666666667, 0, 0" stroke="#000" stroke-opacity="0.02" fill-opacity="0.046" fill="#222" transform="translate(244, 284.66666666667) scale(1, 1)" /><polyline points="0, 0, 40.666666666667, 40.666666666667, 0, 40.666666666667, 0, 0" stroke="#000" stroke-opacity="0.02" fill-opacity="0.046" fill="#222" transform="translate(325.33333333333, 284.66666666667) scale(-1, 1)" /></svg>