<?xml version="1.0"?><svg xmlns="http://www.w3.org/2000/svg" width="188" height="126"><rect x="0" y="0" width="100%" height="100%" fill="rgb(178, 190, 195)" /><polyline points="15.666666666667, 0, 31.333333333333, 21, 15.666666666667, 42, 0, 21" fill="#ddd" fill-opacity="0.089333333333333" stroke="#000" stroke-opacity="0.02" transform="translate(-15.666666666667, -21)" /><polyline points="15.666666666667, 0, 31.333333333333, 21, 15.666666666667, 42, 0, 21" fill="#ddd" fill-opacity="0.089333333333333" stroke="#000" stroke-opacity="0.02" transform="translate(172.33333333333, -21)" /><polyline points="15.666666666667, 0, 31.333333333333, 21, 15.666666666667, 42, 0, 21" fill="#ddd" fill-opacity="0.089333333333333" stroke="#000" stroke-opacity="0.02" transform="translate(-15.666666666667, 105)" /><polyline points="15.666666666667, 0, 31.333333333333, 21, 15.666666666667, 42, 0, 21" fill="#ddd" fill-opacity="0.089333333333333" stroke="#000" stroke-opacity="0.02" transform="translate(172.33333333333, 105)" /><polyline points="15.666666666667, 0, 31.333333333333, 21, 15.666666666667, 42, 0, 21" fill="#ddd" fill-opacity="0.124" stroke="#000" stroke-opacity="0.02" transform="translate(15.666666666667, -21)" /><polyline points="15.666666666667, 0, 31.333333333333, 21, 15.666666666667, 42, 0, 21" fill="#ddd" fill-opacity="0.124" stroke="#000" stroke-opacity="0.02" transform="translate(15.666666666667, 105)" /><polyline points="15.666666666667, 0, 31.333333333333, 21, 15.666666666667, 42, 0, 21" fill="#ddd" fill-opacity="0.02" stroke="#000" stroke-opacity="0.02" transform="translate(47, -21)" /><polyline points="15.666666666667, 0, 31.333333333333, 21, 15.666666666667, 42, 0, 21" fill="#ddd" fill-opacity="0.02" stroke="#000" stroke-opacity="0.02" transform="translate(47, 105)" /><polyline points="15.666666666667, 0, 31.333333333333, 21, 15.666666666667, 42, 0, 21" fill="#222" fill-opacity="0.13266666666667" stroke="#000" stroke-opacity="0.02" transform="translate(78.333333333333, -21)" /><polyline points="15.666666666667, 0, 31.333333333333, 21, 15.666666666667, 42, 0, 21" fill="#222" fill-opacity="0.13266666666667" stroke="#000" stroke-opacity="0.02" transform="translate(78.333333333333, 105)" /><polyline points="15.666666666667, 0, 31.333333333333, 21, 15.666666666667, 42, 0, 21" fill="#222" fill-opacity="0.080666666666667" stroke="#000" stroke-opacity="0.02" transform="translate(109.66666666667, -21)" /><polyline points="15.666666666667, 0, 31.333333333333, 21, 15.666666666667, 42, 0, 21" fill="#222" fill-opacity="0.080666666666667" stroke="#000" stroke-opacity="0.02" transform="translate(109.66666666667, 105)" /><polyline points="15.666666666667, 0, 31.333333333333, 21, 15.666666666667, 42, 0, 21" fill="#222" fill-opacity="0.080666666666667" stroke="#000" stroke-opacity="0.02" transform="translate(141, -21)" /><polyline points="15.666666666667, 0, 31.333333333333, 21, 15.666666666667, 42, 0, 21" fill="#222" fill-opacity="0.080666666666667" stroke="#000" stroke-opacity="0.02" transform="translate(141, 105)" /><polyline points="15.666666666667, 0, 31.333333333333, 21, 15.666666666667, 42, 0, 21" fill="#222" fill-opacity="0.11533333333333" stroke="#000" stroke-opacity="0.02" transform="translate(0, 0)" /><polyline points="15.666666666667, 0, 31.333333333333, 21, 15.666666666667, 42, 0, 21" fill="#222" fill-opacity="0.11533333333333" stroke="#000" stroke-opacity="0.02" transform="translate(188, 0)" /><polyline points="15.666666666667, 0, 31.333333333333, 21, 15.666666666667, 42, 0, 21" fill="#222" fill-opacity="0.028666666666667" stroke="#000" stroke-opacity="0.02" transform="translate(31.333333333333, 0)" /><polyline points="15.666666666667, 0, 31.333333333333, 21, 15.666666666667, 42, 0, 21" fill="#ddd" fill-opacity="0.072" stroke="#000" stroke-opacity="0.02" transform="translate(62.666666666667, 0)" /><polyline points="15.666666666667, 0, 31.333333333333, 21, 15.666666666667, 42, 0, 21" fill="#222" fill-opacity="0.13266666666667" stroke="#000" stroke-opacity="0.02" transform="translate(94, 0)" /><polyline points="15.666666666667, 0, 31.333333333333, 21, 15.666666666667, 42, 0, 21" fill="#222" fill-opacity="0.046" stroke="#000" stroke-opacity="0.02" transform="translate(125.33333333333, 0)" /><polyline points="15.666666666667, 0, 31.333333333333, 21, 15.666666666667, 42, 0, 21" fill="#222" fill-opacity="0.11533333333333" stroke="#000" stroke-opacity="0.02" transform="translate(156.66666666667, 0)" /><polyline points="15.666666666667, 0, 31.333333333333, 21, 15.666666666667, 42, 0, 21" fill="#222" fill-opacity="0.046" stroke="#000" stroke-opacity="0.02" transform="translate(-15.666666666667, 21)" /><polyline points="15.666666666667, 0, 31.333333333333, 21, 15.666666666667, 42, 0, 21" fill="#222" fill-opacity="0.046" stroke="#000" stroke-opacity="0.02" transform="translate(172.33333333333, 21)" /><polyline points="15.666666666667, 0, 31.333333333333, 21, 15.666666666667, 42, 0, 21" fill="#ddd" fill-opacity="0.10666666666667" stroke="#000" stroke-opacity="0.02" transform="translate(15.666666666667, 21)" /><polyline points="15.666666666667, 0, 31.333333333333, 21, 15.666666666667, 42, 0, 21" fill="#222" fill-opacity="0.15" stroke="#000" stroke-opacity="0.02" transform="translate(47, 21)" /><polyline points="15.666666666667, 0, 31.333333333333, 21, 15.666666666667, 42, 0, 21" fill="#222" fill-opacity="0.080666666666667" stroke="#000" stroke-opacity="0.02" transform="translate(78.333333333333, 21)" /><polyline points="15.666666666667, 0, 31.333333333333, 21, 15.666666666667, 42, 0, 21" fill="#ddd" fill-opacity="0.10666666666667" stroke="#000" stroke-opacity="0.02" transform="translate(109.66666666667, 21)" /><polyline points="15.666666666667, 0, 31.333333333333, 21, 15.666666666667, 42, 0, 21" fill="#ddd" fill-opacity="0.14133333333333" stroke="#000" stroke-opacity="0.02" transform="translate(141, 21)" /><polyline points="15.666666666667, 0, 31.333333333333, 21, 15.666666666667, 42, 0, 21" fill="#ddd" fill-opacity="0.124" stroke="#000" stroke-opacity="0.02" transform="translate(0, 42)" /><polyline points="15.666666666667, 0, 31.333333333333, 21, 15.666666666667, 42, 0, 21" fill="#ddd" fill-opacity="0.124" stroke="#000" stroke-opacity="0.02" transform="translate(188, 42)" /><polyline points="15.666666666667, 0, 31.333333333333, 21, 15.666666666667, 42, 0, 21" fill="#ddd" fill-opacity="0.14133333333333" stroke="#000" stroke-opacity="0.02" transform="translate(31.333333333333, 42)" /><polyline points="15.666666666667, 0, 31.333333333333, 21, 15.666666666667, 42, 0, 21" fill="#222" fill-opacity="0.11533333333333" stroke="#000" stroke-opacity="0.02" transform="translate(62.666666666667, 42)" /><polyline points="15.666666666667, 0, 31.333333333333, 21, 15.666666666667, 42, 0, 21" fill="#222" fill-opacity="0.063333333333333" stroke="#000" stroke-opacity="0.02" transform="translate(94, 42)" /><polyline points="15.666666666667, 0, 31.333333333333, 21, 15.666666666667, 42, 0, 21" fill="#ddd" fill-opacity="0.14133333333333" stroke="#000" stroke-opacity="0.02" transform="translate(125.33333333333, 42)" /><polyline points="15.666666666667, 0, 31.333333333333, 21, 15.666666666667, 42, 0, 21" fill="#ddd" fill-opacity="0.089333333333333" stroke="#000" stroke-opacity="0.02" transform="translate(156.66666666667, 42)" /><polyline points="15.666666666667, 0, 31.333333333333, 21, 15.666666666667, 42, 0, 21" fill="#222" fill-opacity="0.13266666666667" stroke="#000" stroke-opacity="0.02" transform="translate(-15.666666666667, 63)" /><polyline points="15.666666666667, 0, 31.333333333333, 21, 15.666666666667, 42, 0, 21" fill="#222" fill-opacity="0.13266666666667" stroke="#000" stroke-opacity="0.02" transform="translate(172.33333333333, 63)" /><polyline points="15.666666666667, 0, 31.333333333333, 21, 15.666666666667, 42, 0, 21" fill="#ddd" fill-opacity="0.037333333333333" stroke="#000" stroke-opacity="0.02" transform="translate(15.666666666667, 63)" /><polyline points="15.666666666667, 0, 31.333333333333, 21, 15.666666666667, 42, 0, 21" fill="#ddd" fill-opacity="0.072" stroke="#000" stroke-opacity="0.02" transform="translate(47, 63)" /><polyline points="15.666666666667, 0, 31.333333333333, 21, 15.666666666667, 42, 0, 21" fill="#222" fill-opacity="0.11533333333333" stroke="#000" stroke-opacity="0.02" transform="translate(78.333333333333, 63)" /><polyline points="15.666666666667, 0, 31.333333333333, 21, 15.666666666667, 42, 0, 21" fill="#222" fill-opacity="0.046" stroke="#000" stroke-opacity="0.02" transform="translate(109.66666666667, 63)" /><polyline points="15.666666666667, 0, 31.333333333333, 21, 15.666666666667, 42, 0, 21" fill="#ddd" fill-opacity="0.072" stroke="#000" stroke-opacity="0.02" transform="translate(141, 63)" /><polyline points="15.666666666667, 0, 31.333333333333, 21, 15.666666666667, 42, 0, 21" fill="#ddd" fill-opacity="0.054666666666667" stroke="#000" stroke-opacity="0.02" transform="translate(0, 84)" /><polyline points="15.666666666667, 0, 31.333333333333, 21, 15.666666666667, 42, 0, 21" fill="#ddd" fill-opacity="0.054666666666667" stroke="#000" stroke-opacity="0.02" transform="translate(188, 84)" /><polyline points="15.666666666667, 0, 31.333333333333, 21, 15.666666666667, 42, 0, 21" fill="#ddd" fill-opacity="0.037333333333333" stroke="#000" stroke-opacity="0.02" transform="translate(31.333333333333, 84)" /><polyline points="15.666666666667, 0, 31.333333333333, 21, 15.666666666667, 42, 0, 21" fill="#ddd" fill-opacity="0.072" stroke="#000" stroke-opacity="0.02" transform="translate(62.666666666667, 84)" /><polyline points="15.666666666667, 0, 31.333333333333, 21, 15.666666666667, 42, 0, 21" fill="#222" fill-opacity="0.063333333333333" stroke="#000" stroke-opacity="0.02" transform="translate(94, 84)" /><polyline points="15.666666666667, 0, 31.333333333333, 21, 15.666666666667, 42, 0, 21" fill="#ddd" fill-opacity="0.02" stroke="#000" stroke-opacity="0.02" transform="translate(125.33333333333, 84)" /><polyline points="15.666666666667, 0, 31.333333333333, 21, 15.666666666667, 42, 0, 21" fill="#222" fill-opacity="0.028666666666667" stroke="#000" stroke-opacity="0.02" transform="translate(156.66666666667, 84)" /></svg>