<?xml version="1.0"?><svg xmlns="http://www.w3.org/2000/svg" width="360" height="360"><rect x="0" y="0" width="100%" height="100%" fill="rgb(223, 230, 233)" /><circle cx="30" cy="30" r="25" fill="none" stroke="#ddd" style="opacity:0.124;stroke-width:10px;" /><circle cx="30" cy="30" r="12.5" fill="#ddd" fill-opacity="0.124" /><circle cx="90" cy="30" r="25" fill="none" stroke="#ddd" style="opacity:0.10666666666667;stroke-width:10px;" /><circle cx="90" cy="30" r="12.5" fill="#222" fill-opacity="0.11533333333333" /><circle cx="150" cy="30" r="25" fill="none" stroke="#ddd" style="opacity:0.037333333333333;stroke-width:10px;" /><circle cx="150" cy="30" r="12.5" fill="#222" fill-opacity="0.13266666666667" /><circle cx="210" cy="30" r="25" fill="none" stroke="#ddd" style="opacity:0.14133333333333;stroke-width:10px;" /><circle cx="210" cy="30" r="12.5" fill="#ddd" fill-opacity="0.10666666666667" /><circle cx="270" cy="30" r="25" fill="none" stroke="#222" style="opacity:0.15;stroke-width:10px;" /><circle cx="270" cy="30" r="12.5" fill="#222" fill-opacity="0.13266666666667" /><circle cx="330" cy="30" r="25" fill="none" stroke="#222" style="opacity:0.063333333333333;stroke-width:10px;" /><circle cx="330" cy="30" r="12.5" fill="#222" fill-opacity="0.098" /><circle cx="30" cy="90" r="25" fill="none" stroke="#222" style="opacity:0.13266666666667;stroke-width:10px;" /><circle cx="30" cy="90" r="12.5" fill="#ddd" fill-opacity="0.10666666666667" /><circle cx="90" cy="90" r="25" fill="none" stroke="#222" style="opacity:0.11533333333333;stroke-width:10px;" /><circle cx="90" cy="90" r="12.5" fill="#222" fill-opacity="0.11533333333333" /><circle cx="150" cy="90" r="25" fill="none" stroke="#ddd" style="opacity:0.037333333333333;stroke-width:10px;" /><circle cx="150" cy="90" r="12.5" fill="#222" fill-opacity="0.028666666666667" /><circle cx="210" cy="90" r="25" fill="none" stroke="#ddd" style="opacity:0.14133333333333;stroke-width:10px;" /><circle cx="210" cy="90" r="12.5" fill="#ddd" fill-opacity="0.10666666666667" /><circle cx="270" cy="90" r="25" fill="none" stroke="#222" style="opacity:0.098;stroke-width:10px;" /><circle cx="270" cy="90" r="12.5" fill="#222" fill-opacity="0.063333333333333" /><circle cx="330" cy="90" r="25" fill="none" stroke="#222" style="opacity:0.098;stroke-width:10px;" /><circle cx="330" cy="90" r="12.5" fill="#ddd" fill-opacity="0.037333333333333" /><circle cx="30" cy="150" r="25" fill="none" stroke="#222" style="opacity:0.063333333333333;stroke-width:10px;" /><circle cx="30" cy="150" r="12.5" fill="#222" fill-opacity="0.13266666666667" /><circle cx="90" cy="150" r="25" fill="none" stroke="#222" style="opacity:0.046;stroke-width:10px;" /><circle cx="90" cy="150" r="12.5" fill="#222" fill-opacity="0.063333333333333" /><circle cx="150" cy="150" r="25" fill="none" stroke="#ddd" style="opacity:0.14133333333333;stroke-width:10px;" /><circle cx="150" cy="150" r="12.5" fill="#ddd" fill-opacity="0.124" /><circle cx="210" cy="150" r="25" fill="none" stroke="#ddd" style="opacity:0.054666666666667;stroke-width:10px;" /><circle cx="210" cy="150" r="12.5" fill="#222" fill-opacity="0.13266666666667" /><circle cx="270" cy="150" r="25" fill="none" stroke="#222" style="opacity:0.080666666666667;stroke-width:10px;" /><circle cx="270" cy="150" r="12.5" fill="#222" fill-opacity="0.11533333333333" /><circle cx="330" cy="150" r="25" fill="none" stroke="#222" style="opacity:0.028666666666667;stroke-width:10px;" /><circle cx="330" cy="150" r="12.5" fill="#222" fill-opacity="0.15" /><circle cx="30" cy="210" r="25" fill="none" stroke="#ddd" style="opacity:0.124;stroke-width:10px;" /><circle cx="30" cy="210" r="12.5" fill="#222" fill-opacity="0.11533333333333" /><circle cx="90" cy="210" r="25" fill="none" stroke="#222" style="opacity:0.063333333333333;stroke-width:10px;" /><circle cx="90" cy="210" r="12.5" fill="#ddd" fill-opacity="0.10666666666667" /><circle cx="150" cy="210" r="25" fill="none" stroke="#ddd" style="opacity:0.10666666666667;stroke-width:10px;" /><circle cx="150" cy="210" r="12.5" fill="#222" fill-opacity="0.063333333333333" /><circle cx="210" cy="210" r="25" fill="none" stroke="#222" style="opacity:0.11533333333333;stroke-width:10px;" /><circle cx="210" cy="210" r="12.5" fill="#ddd" fill-opacity="0.124" /><circle cx="270" cy="210" r="25" fill="none" stroke="#222" style="opacity:0.15;stroke-width:10px;" /><circle cx="270" cy="210" r="12.5" fill="#222" fill-opacity="0.028666666666667" /><circle cx="330" cy="210" r="25" fill="none" stroke="#222" style="opacity:0.11533333333333;stroke-width:10px;" /><circle cx="330" cy="210" r="12.5" fill="#222" fill-opacity="0.080666666666667" /><circle cx="30" cy="270" r="25" fill="none" stroke="#222" style="opacity:0.13266666666667;stroke-width:10px;" /><circle cx="30" cy="270" r="12.5" fill="#ddd" fill-opacity="0.054666666666667" /><circle cx="90" cy="270" r="25" fill="none" stroke="#ddd" style="opacity:0.124;stroke-width:10px;" /><circle cx="90" cy="270" r="12.5" fill="#ddd" fill-opacity="0.14133333333333" /><circle cx="150" cy="270" r="25" fill="none" stroke="#222" style="opacity:0.063333333333333;stroke-width:10px;" /><circle cx="150" cy="270" r="12.5" fill="#222" fill-opacity="0.046" /><circle cx="210" cy="270" r="25" fill="none" stroke="#222" style="opacity:0.13266666666667;stroke-width:10px;" /><circle cx="210" cy="270" r="12.5" fill="#222" fill-opacity="0.063333333333333" /><circle cx="270" cy="270" r="25" fill="none" stroke="#ddd" style="opacity:0.037333333333333;stroke-width:10px;" /><circle cx="270" cy="270" r="12.5" fill="#222" fill-opacity="0.098" /><circle cx="330" cy="270" r="25" fill="none" stroke="#222" style="opacity:0.063333333333333;stroke-width:10px;" /><circle cx="330" cy="270" r="12.5" fill="#222" fill-opacity="0.098" /><circle cx="30" cy="330" r="25" fill="none" stroke="#ddd" style="opacity:0.10666666666667;stroke-width:10px;" /><circle cx="30" cy="330" r="12.5" fill="#ddd" fill-opacity="0.14133333333333" /><circle cx="90" cy="330" r="25" fill="none" stroke="#222" style="opacity:0.028666666666667;stroke-width:10px;" /><circle cx="90" cy="330" r="12.5" fill="#ddd" fill-opacity="0.037333333333333" /><circle cx="150" cy="330" r="25" fill="none" stroke="#222" style="opacity:0.11533333333333;stroke-width:10px;" /><circle cx="150" cy="330" r="12.5" fill="#222" fill-opacity="0.11533333333333" /><circle cx="210" cy="330" r="25" fill="none" stroke="#ddd" style="opacity:0.10666666666667;stroke-width:10px;" /><circle cx="210" cy="330" r="12.5" fill="#222" fill-opacity="0.13266666666667" /><circle cx="270" cy="330" r="25" fill="none" stroke="#222" style="opacity:0.098;stroke-width:10px;" /><circle cx="270" cy="330" r="12.5" fill="#222" fill-opacity="0.063333333333333" /><circle cx="330" cy="330" r="25" fill="none" stroke="#222" style="opacity:0.13266666666667;stroke-width:10px;" /><circle cx="330" cy="330" r="12.5" fill="#222" fill-opacity="0.15" /></svg>