<?xml version="1.0"?><svg xmlns="http://www.w3.org/2000/svg" width="415" height="240"><rect x="0" y="0" width="100%" height="100%" fill="rgb(9, 132, 227)" /><polyline points="0, 0, 69.282032302755, 40, 0, 80, 0, 0" fill="#222" fill-opacity="0.15" stroke="#000" stroke-opacity="0.02" transform="translate(0, -40) rotate(180, 34.641016151378, 40)" /><polyline points="0, 0, 69.282032302755, 40, 0, 80, 0, 0" fill="#222" fill-opacity="0.15" stroke="#000" stroke-opacity="0.02" transform="translate(0, 200) rotate(180, 34.641016151378, 40)" /><polyline points="0, 0, 69.282032302755, 40, 0, 80, 0, 0" fill="#222" fill-opacity="0.080666666666667" stroke="#000" stroke-opacity="0.02" transform="translate(69.282032302755, -40) rotate(0, 34.641016151378, 40)" /><polyline points="0, 0, 69.282032302755, 40, 0, 80, 0, 0" fill="#222" fill-opacity="0.080666666666667" stroke="#000" stroke-opacity="0.02" transform="translate(69.282032302755, 200) rotate(0, 34.641016151378, 40)" /><polyline points="0, 0, 69.282032302755, 40, 0, 80, 0, 0" fill="#222" fill-opacity="0.11533333333333" stroke="#000" stroke-opacity="0.02" transform="translate(138.56406460551, -40) rotate(180, 34.641016151378, 40)" /><polyline points="0, 0, 69.282032302755, 40, 0, 80, 0, 0" fill="#222" fill-opacity="0.11533333333333" stroke="#000" stroke-opacity="0.02" transform="translate(138.56406460551, 200) rotate(180, 34.641016151378, 40)" /><polyline points="0, 0, 69.282032302755, 40, 0, 80, 0, 0" fill="#ddd" fill-opacity="0.14133333333333" stroke="#000" stroke-opacity="0.02" transform="translate(207.84609690827, -40) rotate(0, 34.641016151378, 40)" /><polyline points="0, 0, 69.282032302755, 40, 0, 80, 0, 0" fill="#ddd" fill-opacity="0.14133333333333" stroke="#000" stroke-opacity="0.02" transform="translate(207.84609690827, 200) rotate(0, 34.641016151378, 40)" /><polyline points="0, 0, 69.282032302755, 40, 0, 80, 0, 0" fill="#222" fill-opacity="0.046" stroke="#000" stroke-opacity="0.02" transform="translate(277.12812921102, -40) rotate(180, 34.641016151378, 40)" /><polyline points="0, 0, 69.282032302755, 40, 0, 80, 0, 0" fill="#222" fill-opacity="0.046" stroke="#000" stroke-opacity="0.02" transform="translate(277.12812921102, 200) rotate(180, 34.641016151378, 40)" /><polyline points="0, 0, 69.282032302755, 40, 0, 80, 0, 0" fill="#222" fill-opacity="0.13266666666667" stroke="#000" stroke-opacity="0.02" transform="translate(346.41016151378, -40) rotate(0, 34.641016151378, 40)" /><polyline points="0, 0, 69.282032302755, 40, 0, 80, 0, 0" fill="#222" fill-opacity="0.13266666666667" stroke="#000" stroke-opacity="0.02" transform="translate(346.41016151378, 200) rotate(0, 34.641016151378, 40)" /><polyline points="0, 0, 69.282032302755, 40, 0, 80, 0, 0" fill="#222" fill-opacity="0.028666666666667" stroke="#000" stroke-opacity="0.02" transform="translate(0, 0) rotate(0, 34.641016151378, 40)" /><polyline points="0, 0, 69.282032302755, 40, 0, 80, 0, 0" fill="#222" fill-opacity="0.098" stroke="#000" stroke-opacity="0.02" transform="translate(69.282032302755, 0) rotate(180, 34.641016151378, 40)" /><polyline points="0, 0, 69.282032302755, 40, 0, 80, 0, 0" fill="#222" fill-opacity="0.063333333333333" stroke="#000" stroke-opacity="0.02" transform="translate(138.56406460551, 0) rotate(0, 34.641016151378, 40)" /><polyline points="0, 0, 69.282032302755, 40, 0, 80, 0, 0" fill="#ddd" fill-opacity="0.02" stroke="#000" stroke-opacity="0.02" transform="translate(207.84609690827, 0) rotate(180, 34.641016151378, 40)" /><polyline points="0, 0, 69.282032302755, 40, 0, 80, 0, 0" fill="#222" fill-opacity="0.11533333333333" stroke="#000" stroke-opacity="0.02" transform="translate(277.12812921102, 0) rotate(0, 34.641016151378, 40)" /><polyline points="0, 0, 69.282032302755, 40, 0, 80, 0, 0" fill="#222" fill-opacity="0.046" stroke="#000" stroke-opacity="0.02" transform="translate(346.41016151378, 0) rotate(180, 34.641016151378, 40)" /><polyline points="0, 0, 69.282032302755, 40, 0, 80, 0, 0" fill="#ddd" fill-opacity="0.037333333333333" stroke="#000" stroke-opacity="0.02" transform="translate(0, 40) rotate(180, 34.641016151378, 40)" /><polyline points="0, 0, 69.282032302755, 40, 0, 80, 0, 0" fill="#222" fill-opacity="0.080666666666667" stroke="#000" stroke-opacity="0.02" transform="translate(69.282032302755, 40) rotate(0, 34.641016151378, 40)" /><polyline points="0, 0, 69.282032302755, 40, 0, 80, 0, 0" fill="#ddd" fill-opacity="0.072" stroke="#000" stroke-opacity="0.02" transform="translate(138.56406460551, 40) rotate(180, 34.641016151378, 40)" /><polyline points="0, 0, 69.282032302755, 40, 0, 80, 0, 0" fill="#ddd" fill-opacity="0.02" stroke="#000" stroke-opacity="0.02" transform="translate(207.84609690827, 40) rotate(0, 34.641016151378, 40)" /><polyline points="0, 0, 69.282032302755, 40, 0, 80, 0, 0" fill="#222" fill-opacity="0.028666666666667" stroke="#000" stroke-opacity="0.02" transform="translate(277.12812921102, 40) rotate(180, 34.641016151378, 40)" /><polyline points="0, 0, 69.282032302755, 40, 0, 80, 0, 0" fill="#ddd" fill-opacity="0.089333333333333" stroke="#000" stroke-opacity="0.02" transform="translate(346.41016151378, 40) rotate(0, 34.641016151378, 40)" /><polyline points="0, 0, 69.282032302755, 40, 0, 80, 0, 0" fill="#ddd" fill-opacity="0.054666666666667" stroke="#000" stroke-opacity="0.02" transform="translate(0, 80) rotate(0, 34.641016151378, 40)" /><polyline points="0, 0, 69.282032302755, 40, 0, 80, 0, 0" fill="#ddd" fill-opacity="0.072" stroke="#000" stroke-opacity="0.02" transform="translate(69.282032302755, 80) rotate(180, 34.641016151378, 40)" /><polyline points="0, 0, 69.282032302755, 40, 0, 80, 0, 0" fill="#222" fill-opacity="0.15" stroke="#000" stroke-opacity="0.02" transform="translate(138.56406460551, 80) rotate(0, 34.641016151378, 40)" /><polyline points="0, 0, 69.282032302755, 40, 0, 80, 0, 0" fill="#ddd" fill-opacity="0.072" stroke="#000" stroke-opacity="0.02" transform="translate(207.84609690827, 80) rotate(180, 34.641016151378, 40)" /><polyline points="0, 0, 69.282032302755, 40, 0, 80, 0, 0" fill="#ddd" fill-opacity="0.072" stroke="#000" stroke-opacity="0.02" transform="translate(277.12812921102, 80) rotate(0, 34.641016151378, 40)" /><polyline points="0, 0, 69.282032302755, 40, 0, 80, 0, 0" fill="#222" fill-opacity="0.13266666666667" stroke="#000" stroke-opacity="0.02" transform="translate(346.41016151378, 80) rotate(180, 34.641016151378, 40)" /><polyline points="0, 0, 69.282032302755, 40, 0, 80, 0, 0" fill="#ddd" fill-opacity="0.14133333333333" stroke="#000" stroke-opacity="0.02" transform="translate(0, 120) rotate(180, 34.641016151378, 40)" /><polyline points="0, 0, 69.282032302755, 40, 0, 80, 0, 0" fill="#222" fill-opacity="0.11533333333333" stroke="#000" stroke-opacity="0.02" transform="translate(69.282032302755, 120) rotate(0, 34.641016151378, 40)" /><polyline points="0, 0, 69.282032302755, 40, 0, 80, 0, 0" fill="#222" fill-opacity="0.080666666666667" stroke="#000" stroke-opacity="0.02" transform="translate(138.56406460551, 120) rotate(180, 34.641016151378, 40)" /><polyline points="0, 0, 69.282032302755, 40, 0, 80, 0, 0" fill="#222" fill-opacity="0.028666666666667" stroke="#000" stroke-opacity="0.02" transform="translate(207.84609690827, 120) rotate(0, 34.641016151378, 40)" /><polyline points="0, 0, 69.282032302755, 40, 0, 80, 0, 0" fill="#ddd" fill-opacity="0.037333333333333" stroke="#000" stroke-opacity="0.02" transform="translate(277.12812921102, 120) rotate(180, 34.641016151378, 40)" /><polyline points="0, 0, 69.282032302755, 40, 0, 80, 0, 0" fill="#222" fill-opacity="0.098" stroke="#000" stroke-opacity="0.02" transform="translate(346.41016151378, 120) rotate(0, 34.641016151378, 40)" /><polyline points="0, 0, 69.282032302755, 40, 0, 80, 0, 0" fill="#222" fill-opacity="0.15" stroke="#000" stroke-opacity="0.02" transform="translate(0, 160) rotate(0, 34.641016151378, 40)" /><polyline points="0, 0, 69.282032302755, 40, 0, 80, 0, 0" fill="#222" fill-opacity="0.11533333333333" stroke="#000" stroke-opacity="0.02" transform="translate(69.282032302755, 160) rotate(180, 34.641016151378, 40)" /><polyline points="0, 0, 69.282032302755, 40, 0, 80, 0, 0" fill="#ddd" fill-opacity="0.124" stroke="#000" stroke-opacity="0.02" transform="translate(138.56406460551, 160) rotate(0, 34.641016151378, 40)" /><polyline points="0, 0, 69.282032302755, 40, 0, 80, 0, 0" fill="#222" fill-opacity="0.15" stroke="#000" stroke-opacity="0.02" transform="translate(207.84609690827, 160) rotate(180, 34.641016151378, 40)" /><polyline points="0, 0, 69.282032302755, 40, 0, 80, 0, 0" fill="#ddd" fill-opacity="0.10666666666667" stroke="#000" stroke-opacity="0.02" transform="translate(277.12812921102, 160) rotate(0, 34.641016151378, 40)" /><polyline points="0, 0, 69.282032302755, 40, 0, 80, 0, 0" fill="#222" fill-opacity="0.080666666666667" stroke="#000" stroke-opacity="0.02" transform="translate(346.41016151378, 160) rotate(180, 34.641016151378, 40)" /></svg>