<?xml version="1.0"?><svg xmlns="http://www.w3.org/2000/svg" width="123" height="213"><rect x="0" y="0" width="100%" height="100%" fill="rgb(9, 132, 227)" /><polyline points="20.5, 0, 41, 35.507041555162, 0, 35.507041555162, 20.5, 0" fill="#ddd" fill-opacity="0.072" stroke="#000" stroke-opacity="0.02" transform="translate(-20.5, 0) rotate(180, 20.5, 17.753520777581)" /><polyline points="20.5, 0, 41, 35.507041555162, 0, 35.507041555162, 20.5, 0" fill="#ddd" fill-opacity="0.072" stroke="#000" stroke-opacity="0.02" transform="translate(102.5, 0) rotate(180, 20.5, 17.753520777581)" /><polyline points="20.5, 0, 41, 35.507041555162, 0, 35.507041555162, 20.5, 0" fill="#222" fill-opacity="0.13266666666667" stroke="#000" stroke-opacity="0.02" transform="translate(0, 0) rotate(0, 20.5, 17.753520777581)" /><polyline points="20.5, 0, 41, 35.507041555162, 0, 35.507041555162, 20.5, 0" fill="#222" fill-opacity="0.028666666666667" stroke="#000" stroke-opacity="0.02" transform="translate(20.5, 0) rotate(180, 20.5, 17.753520777581)" /><polyline points="20.5, 0, 41, 35.507041555162, 0, 35.507041555162, 20.5, 0" fill="#222" fill-opacity="0.046" stroke="#000" stroke-opacity="0.02" transform="translate(41, 0) rotate(0, 20.5, 17.753520777581)" /><polyline points="20.5, 0, 41, 35.507041555162, 0, 35.507041555162, 20.5, 0" fill="#222" fill-opacity="0.063333333333333" stroke="#000" stroke-opacity="0.02" transform="translate(61.5, 0) rotate(180, 20.5, 17.753520777581)" /><polyline points="20.5, 0, 41, 35.507041555162, 0, 35.507041555162, 20.5, 0" fill="#222" fill-opacity="0.11533333333333" stroke="#000" stroke-opacity="0.02" transform="translate(82, 0) rotate(0, 20.5, 17.753520777581)" /><polyline points="20.5, 0, 41, 35.507041555162, 0, 35.507041555162, 20.5, 0" fill="#ddd" fill-opacity="0.072" stroke="#000" stroke-opacity="0.02" transform="translate(-20.5, 35.507041555162) rotate(0, 20.5, 17.753520777581)" /><polyline points="20.5, 0, 41, 35.507041555162, 0, 35.507041555162, 20.5, 0" fill="#ddd" fill-opacity="0.072" stroke="#000" stroke-opacity="0.02" transform="translate(102.5, 35.507041555162) rotate(0, 20.5, 17.753520777581)" /><polyline points="20.5, 0, 41, 35.507041555162, 0, 35.507041555162, 20.5, 0" fill="#222" fill-opacity="0.13266666666667" stroke="#000" stroke-opacity="0.02" transform="translate(0, 35.507041555162) rotate(180, 20.5, 17.753520777581)" /><polyline points="20.5, 0, 41, 35.507041555162, 0, 35.507041555162, 20.5, 0" fill="#222" fill-opacity="0.11533333333333" stroke="#000" stroke-opacity="0.02" transform="translate(20.5, 35.507041555162) rotate(0, 20.5, 17.753520777581)" /><polyline points="20.5, 0, 41, 35.507041555162, 0, 35.507041555162, 20.5, 0" fill="#ddd" fill-opacity="0.10666666666667" stroke="#000" stroke-opacity="0.02" transform="translate(41, 35.507041555162) rotate(180, 20.5, 17.753520777581)" /><polyline points="20.5, 0, 41, 35.507041555162, 0, 35.507041555162, 20.5, 0" fill="#222" fill-opacity="0.13266666666667" stroke="#000" stroke-opacity="0.02" transform="translate(61.5, 35.507041555162) rotate(0, 20.5, 17.753520777581)" /><polyline points="20.5, 0, 41, 35.507041555162, 0, 35.507041555162, 20.5, 0" fill="#ddd" fill-opacity="0.124" stroke="#000" stroke-opacity="0.02" transform="translate(82, 35.507041555162) rotate(180, 20.5, 17.753520777581)" /><polyline points="20.5, 0, 41, 35.507041555162, 0, 35.507041555162, 20.5, 0" fill="#222" fill-opacity="0.13266666666667" stroke="#000" stroke-opacity="0.02" transform="translate(-20.5, 71.014083110324) rotate(180, 20.5, 17.753520777581)" /><polyline points="20.5, 0, 41, 35.507041555162, 0, 35.507041555162, 20.5, 0" fill="#222" fill-opacity="0.13266666666667" stroke="#000" stroke-opacity="0.02" transform="translate(102.5, 71.014083110324) rotate(180, 20.5, 17.753520777581)" /><polyline points="20.5, 0, 41, 35.507041555162, 0, 35.507041555162, 20.5, 0" fill="#ddd" fill-opacity="0.089333333333333" stroke="#000" stroke-opacity="0.02" transform="translate(0, 71.014083110324) rotate(0, 20.5, 17.753520777581)" /><polyline points="20.5, 0, 41, 35.507041555162, 0, 35.507041555162, 20.5, 0" fill="#ddd" fill-opacity="0.089333333333333" stroke="#000" stroke-opacity="0.02" transform="translate(20.5, 71.014083110324) rotate(180, 20.5, 17.753520777581)" /><polyline points="20.5, 0, 41, 35.507041555162, 0, 35.507041555162, 20.5, 0" fill="#222" fill-opacity="0.15" stroke="#000" stroke-opacity="0.02" transform="translate(41, 71.014083110324) rotate(0, 20.5, 17.753520777581)" /><polyline points="20.5, 0, 41, 35.507041555162, 0, 35.507041555162, 20.5, 0" fill="#ddd" fill-opacity="0.10666666666667" stroke="#000" stroke-opacity="0.02" transform="translate(61.5, 71.014083110324) rotate(180, 20.5, 17.753520777581)" /><polyline points="20.5, 0, 41, 35.507041555162, 0, 35.507041555162, 20.5, 0" fill="#ddd" fill-opacity="0.124" stroke="#000" stroke-opacity="0.02" transform="translate(82, 71.014083110324) rotate(0, 20.5, 17.753520777581)" /><polyline points="20.5, 0, 41, 35.507041555162, 0, 35.507041555162, 20.5, 0" fill="#ddd" fill-opacity="0.089333333333333" stroke="#000" stroke-opacity="0.02" transform="translate(-20.5, 106.52112466549) rotate(0, 20.5, 17.753520777581)" /><polyline points="20.5, 0, 41, 35.507041555162, 0, 35.507041555162, 20.5, 0" fill="#ddd" fill-opacity="0.089333333333333" stroke="#000" stroke-opacity="0.02" transform="translate(102.5, 106.52112466549) rotate(0, 20.5, 17.753520777581)" /><polyline points="20.5, 0, 41, 35.507041555162, 0, 35.507041555162, 20.5, 0" fill="#222" fill-opacity="0.046" stroke="#000" stroke-opacity="0.02" transform="translate(0, 106.52112466549) rotate(180, 20.5, 17.753520777581)" /><polyline points="20.5, 0, 41, 35.507041555162, 0, 35.507041555162, 20.5, 0" fill="#ddd" fill-opacity="0.089333333333333" stroke="#000" stroke-opacity="0.02" transform="translate(20.5, 106.52112466549) rotate(0, 20.5, 17.753520777581)" /><polyline points="20.5, 0, 41, 35.507041555162, 0, 35.507041555162, 20.5, 0" fill="#222" fill-opacity="0.046" stroke="#000" stroke-opacity="0.02" transform="translate(41, 106.52112466549) rotate(180, 20.5, 17.753520777581)" /><polyline points="20.5, 0, 41, 35.507041555162, 0, 35.507041555162, 20.5, 0" fill="#222" fill-opacity="0.063333333333333" stroke="#000" stroke-opacity="0.02" transform="translate(61.5, 106.52112466549) rotate(0, 20.5, 17.753520777581)" /><polyline points="20.5, 0, 41, 35.507041555162, 0, 35.507041555162, 20.5, 0" fill="#222" fill-opacity="0.15" stroke="#000" stroke-opacity="0.02" transform="translate(82, 106.52112466549) rotate(180, 20.5, 17.753520777581)" /><polyline points="20.5, 0, 41, 35.507041555162, 0, 35.507041555162, 20.5, 0" fill="#ddd" fill-opacity="0.10666666666667" stroke="#000" stroke-opacity="0.02" transform="translate(-20.5, 142.02816622065) rotate(180, 20.5, 17.753520777581)" /><polyline points="20.5, 0, 41, 35.507041555162, 0, 35.507041555162, 20.5, 0" fill="#ddd" fill-opacity="0.10666666666667" stroke="#000" stroke-opacity="0.02" transform="translate(102.5, 142.02816622065) rotate(180, 20.5, 17.753520777581)" /><polyline points="20.5, 0, 41, 35.507041555162, 0, 35.507041555162, 20.5, 0" fill="#ddd" fill-opacity="0.089333333333333" stroke="#000" stroke-opacity="0.02" transform="translate(0, 142.02816622065) rotate(0, 20.5, 17.753520777581)" /><polyline points="20.5, 0, 41, 35.507041555162, 0, 35.507041555162, 20.5, 0" fill="#ddd" fill-opacity="0.124" stroke="#000" stroke-opacity="0.02" transform="translate(20.5, 142.02816622065) rotate(180, 20.5, 17.753520777581)" /><polyline points="20.5, 0, 41, 35.507041555162, 0, 35.507041555162, 20.5, 0" fill="#ddd" fill-opacity="0.072" stroke="#000" stroke-opacity="0.02" transform="translate(41, 142.02816622065) rotate(0, 20.5, 17.753520777581)" /><polyline points="20.5, 0, 41, 35.507041555162, 0, 35.507041555162, 20.5, 0" fill="#ddd" fill-opacity="0.124" stroke="#000" stroke-opacity="0.02" transform="translate(61.5, 142.02816622065) rotate(180, 20.5, 17.753520777581)" /><polyline points="20.5, 0, 41, 35.507041555162, 0, 35.507041555162, 20.5, 0" fill="#222" fill-opacity="0.063333333333333" stroke="#000" stroke-opacity="0.02" transform="translate(82, 142.02816622065) rotate(0, 20.5, 17.753520777581)" /><polyline points="20.5, 0, 41, 35.507041555162, 0, 35.507041555162, 20.5, 0" fill="#ddd" fill-opacity="0.089333333333333" stroke="#000" stroke-opacity="0.02" transform="translate(-20.5, 177.53520777581) rotate(0, 20.5, 17.753520777581)" /><polyline points="20.5, 0, 41, 35.507041555162, 0, 35.507041555162, 20.5, 0" fill="#ddd" fill-opacity="0.089333333333333" stroke="#000" stroke-opacity="0.02" transform="translate(102.5, 177.53520777581) rotate(0, 20.5, 17.753520777581)" /><polyline points="20.5, 0, 41, 35.507041555162, 0, 35.507041555162, 20.5, 0" fill="#222" fill-opacity="0.13266666666667" stroke="#000" stroke-opacity="0.02" transform="translate(0, 177.53520777581) rotate(180, 20.5, 17.753520777581)" /><polyline points="20.5, 0, 41, 35.507041555162, 0, 35.507041555162, 20.5, 0" fill="#ddd" fill-opacity="0.054666666666667" stroke="#000" stroke-opacity="0.02" transform="translate(20.5, 177.53520777581) rotate(0, 20.5, 17.753520777581)" /><polyline points="20.5, 0, 41, 35.507041555162, 0, 35.507041555162, 20.5, 0" fill="#ddd" fill-opacity="0.10666666666667" stroke="#000" stroke-opacity="0.02" transform="translate(41, 177.53520777581) rotate(180, 20.5, 17.753520777581)" /><polyline points="20.5, 0, 41, 35.507041555162, 0, 35.507041555162, 20.5, 0" fill="#ddd" fill-opacity="0.14133333333333" stroke="#000" stroke-opacity="0.02" transform="translate(61.5, 177.53520777581) rotate(0, 20.5, 17.753520777581)" /><polyline points="20.5, 0, 41, 35.507041555162, 0, 35.507041555162, 20.5, 0" fill="#ddd" fill-opacity="0.054666666666667" stroke="#000" stroke-opacity="0.02" transform="translate(82, 177.53520777581) rotate(180, 20.5, 17.753520777581)" /></svg>